HIERARCHY
ROOT hip
{
	OFFSET 0.000000 0.000000 0.000000
	CHANNELS 6 Xposition Yposition Zposition Zrotation Yrotation Xrotation 
	JOINT lhipjoint
	{
		OFFSET 0.000000 0.000000 0.000000
		CHANNELS 3 Zrotation Yrotation Xrotation
		JOINT lfemur
		{
			OFFSET 1.363060 -1.794630 0.839290
			CHANNELS 3 Zrotation Yrotation Xrotation
			JOINT ltibia
			{
				OFFSET 2.448110 -6.726130 0.000000
				CHANNELS 3 Zrotation Yrotation Xrotation
				JOINT lfoot
				{
					OFFSET 2.562200 -7.039590 0.000000
					CHANNELS 3 Zrotation Yrotation Xrotation
					JOINT ltoes
					{
						OFFSET 0.157640 -0.433110 2.322550
						CHANNELS 3 Zrotation Yrotation Xrotation
						End Site
						{
							OFFSET 0.000000 0.000000 0.000000
						}
					}
				}
			}
		}
	}
	JOINT rhipjoint
	{
		OFFSET 0.000000 0.000000 0.000000
		CHANNELS 3 Zrotation Yrotation Xrotation
		JOINT rfemur
		{
			OFFSET -1.305520 -1.794630 0.839290
			CHANNELS 3 Zrotation Yrotation Xrotation
			JOINT rtibia
			{
				OFFSET -2.542530 -6.985550 0.000000
				CHANNELS 3 Zrotation Yrotation Xrotation
				JOINT rfoot
				{
					OFFSET -2.568260 -7.056230 0.000000
					CHANNELS 3 Zrotation Yrotation Xrotation
					JOINT rtoes
					{
						OFFSET -0.164730 -0.452590 2.363150
						CHANNELS 3 Zrotation Yrotation Xrotation
						End Site
						{
							OFFSET 0.000000 0.000000 0.000000
						}
					}
				}
			}
		}
	}
	JOINT lowerback
	{
		OFFSET 0.000000 0.000000 0.000000
		CHANNELS 3 Zrotation Yrotation Xrotation
		JOINT upperback
		{
			OFFSET 0.028270 2.035590 -0.193380
			CHANNELS 3 Zrotation Yrotation Xrotation
			JOINT thorax
			{
				OFFSET 0.056720 2.048850 -0.042750
				CHANNELS 3 Zrotation Yrotation Xrotation
				JOINT lowerneck
				{
					OFFSET 0.000000 0.000000 0.000000
					CHANNELS 3 Zrotation Yrotation Xrotation
					JOINT upperneck
					{
						OFFSET -0.054170 1.746240 0.172020
						CHANNELS 3 Zrotation Yrotation Xrotation
						JOINT head
						{
							OFFSET 0.104070 1.761360 -0.123970
							CHANNELS 3 Zrotation Yrotation Xrotation
							End Site
							{
								OFFSET 0.000000 0.000000 0.000000
							}
						}
					}
				}
				JOINT lclavicle
				{
					OFFSET 0.000000 0.000000 0.000000
					CHANNELS 3 Zrotation Yrotation Xrotation
					JOINT lhumerus
					{
						OFFSET 3.362410 1.200890 -0.311210
						CHANNELS 3 Zrotation Yrotation Xrotation
						JOINT lradius
						{
							OFFSET 4.983000 -0.000000 -0.000000
							CHANNELS 3 Zrotation Yrotation Xrotation
							JOINT lwrist
							{
								OFFSET 3.483560 -0.000000 -0.000000
								CHANNELS 3 Zrotation Yrotation Xrotation
								JOINT lhand
								{
									OFFSET 0.000000 0.000000 0.000000
									CHANNELS 3 Zrotation Yrotation Xrotation
									JOINT lfingers
									{
										OFFSET 0.715260 -0.000000 -0.000000
										CHANNELS 3 Zrotation Yrotation Xrotation
										End Site
										{
											OFFSET 0.000000 0.000000 0.000000
										}
									}
								}
								JOINT lthumb
								{
									OFFSET 0.000000 0.000000 0.000000
									CHANNELS 3 Zrotation Yrotation Xrotation
									End Site
									{
										OFFSET 0.000000 0.000000 0.000000
									}
								}
							}
						}
					}
				}
				JOINT rclavicle
				{
					OFFSET 0.000000 0.000000 0.000000
					CHANNELS 3 Zrotation Yrotation Xrotation
					JOINT rhumerus
					{
						OFFSET -3.136600 1.374050 -0.404650
						CHANNELS 3 Zrotation Yrotation Xrotation
						JOINT rradius
						{
							OFFSET -5.241900 -0.000000 -0.000000
							CHANNELS 3 Zrotation Yrotation Xrotation
							JOINT rwrist
							{
								OFFSET -3.444170 -0.000000 -0.000000
								CHANNELS 3 Zrotation Yrotation Xrotation
								JOINT rhand
								{
									OFFSET 0.000000 0.000000 0.000000
									CHANNELS 3 Zrotation Yrotation Xrotation
									JOINT rfingers
									{
										OFFSET -0.622530 -0.000000 -0.000000
										CHANNELS 3 Zrotation Yrotation Xrotation
										End Site
										{
											OFFSET 0.000000 0.000000 0.000000
										}
									}
								}
								JOINT rthumb
								{
									OFFSET 0.000000 0.000000 0.000000
									CHANNELS 3 Zrotation Yrotation Xrotation
									End Site
									{
										OFFSET 0.000000 0.000000 0.000000
									}
								}
							}
						}
					}
				}
			}
		}
	}
}
MOTION
Frames: 6
Frame Time: 0.008333
1.454183 17.892964 19.023061 -1.351962 67.477581 -2.475425 -1.807400 2.543320 1.729445 -6.501330 -5.487099 -5.703499 3.825186 11.503392 35.642591 0.248419 1.690864 -10.242961 0.954400 -6.221200 -17.427500 0.593973 -4.036998 1.080411 23.656264 26.329479 3.558849 -1.974118 -7.151613 24.636145 1.236346 -12.252706 -22.269033 -0.162500 2.596800 -7.158100 0.239936 -2.803636 4.589383 -0.598758 -4.207369 -4.383082 -2.609766 -1.379259 -1.695773 -6.265054 -11.410591 7.974710 -4.934667 -14.087496 10.281714 3.350600 -7.603300 2.269200 0.694142 2.894600 1.071516 -90.830203 3.469735 -27.168469 4.431461 -18.877931 -1.226383 -0.791145 0.281451 40.930920 8.188136 -5.826035 -0.867600 -7.125000 0.000000 0.000000 -13.132800 24.408400 6.702000 1.242008 -0.874188 1.306913 -3.574074 25.595378 -19.784034 -20.753988 36.341132 -4.692216 0.919955 -0.576455 11.371181 15.223970 9.677469 2.549500 7.125000 0.000000 0.000000 28.156500 -19.802900 19.424400 
1.450493 17.890709 19.031158 -1.201205 67.760081 -2.321528 -1.827755 2.537727 1.723669 -6.578272 -5.560746 -5.802913 3.840883 11.516664 35.708497 0.218298 1.860646 -10.356253 0.940300 -6.176300 -17.297000 0.581180 -4.050691 1.073337 23.808537 26.661860 3.781296 -1.988545 -7.163115 24.696748 1.263271 -12.641605 -22.831575 -0.161200 2.586600 -7.130000 0.220832 -2.817424 4.688465 -0.585453 -4.232700 -4.382388 -2.604000 -1.382312 -1.699253 -6.212228 -11.425498 7.905743 -4.967644 -14.103794 10.291975 3.300400 -7.606400 2.266200 0.686642 2.846681 1.077779 -90.956284 3.516715 -26.406537 4.601852 -19.299389 -1.274347 -0.793838 0.291797 40.185503 8.254047 -5.967429 -0.900200 -7.125000 0.000000 0.000000 -13.060700 24.252300 6.711800 1.256827 -0.815226 1.342932 -3.152464 24.900268 -20.065620 -21.872882 37.398396 -5.192539 0.891932 -0.553480 11.653218 15.195751 9.625188 2.530600 7.125000 0.000000 0.000000 28.173300 -19.872800 19.387700 
1.447008 17.887532 19.038435 -1.037219 68.036239 -2.146812 -1.848002 2.532040 1.718586 -6.653264 -5.595625 -5.923690 3.857084 11.530424 35.776659 0.193129 2.003711 -10.455175 0.936100 -6.163000 -17.258100 0.568564 -4.064858 1.066043 23.950950 27.009384 3.993836 -2.004120 -7.177785 24.766578 1.281001 -13.003139 -23.396813 -0.155400 2.539900 -7.000400 0.181948 -2.821877 4.777367 -0.569613 -4.245889 -4.381778 -2.581259 -1.379204 -1.692762 -6.116207 -11.446573 7.815359 -5.024441 -14.126600 10.320703 3.220800 -7.611700 2.265000 0.685634 2.797918 1.083948 -91.072513 3.550443 -25.672905 4.766062 -19.705119 -1.322075 -0.795589 0.302216 39.505335 8.317748 -6.087151 -0.929500 -7.125000 0.000000 0.000000 -12.993600 24.117400 6.717200 1.275428 -0.759840 1.373733 -2.690924 24.206133 -20.418714 -23.070294 38.497446 -5.752713 0.864460 -0.529729 12.035906 15.164813 9.570693 2.510000 7.125000 0.000000 0.000000 28.188900 -19.946900 19.346600 
1.443728 17.885482 19.045200 -0.872850 68.319824 -1.966409 -1.869512 2.525778 1.713696 -6.725801 -5.642229 -6.062137 3.874434 11.544801 35.849310 0.166765 2.146012 -10.533807 0.916800 -6.100900 -17.077400 0.555382 -4.081109 1.059331 24.109234 27.388141 4.224682 -2.019699 -7.191473 24.835560 1.296348 -13.382058 -23.999130 -0.151400 2.507000 -6.909200 0.136465 -2.829831 4.863674 -0.550829 -4.264653 -4.384428 -2.543936 -1.378354 -1.696539 -6.060311 -11.439426 7.720528 -5.069394 -14.120842 10.382644 3.152900 -7.609200 2.289300 0.677885 2.735669 1.089345 -91.161561 3.629252 -24.866549 4.942063 -20.137981 -1.374416 -0.797562 0.316165 38.810211 8.326676 -6.217832 -0.955800 -7.125000 0.000000 0.000000 -12.963700 23.969400 6.746600 1.292880 -0.699176 1.397513 -2.139871 23.418862 -20.658936 -24.483452 39.746424 -6.442794 0.833352 -0.503638 12.342458 15.103619 9.414576 2.459300 7.125000 0.000000 0.000000 28.210100 -20.115100 19.240100 
1.440551 17.883637 19.050939 -0.660955 68.610063 -1.727455 -1.892451 2.518694 1.709062 -6.811010 -5.662987 -6.222400 3.892342 11.558023 35.922667 0.147146 2.260933 -10.626394 0.904500 -6.060700 -16.960800 0.542155 -4.098990 1.053121 24.255869 27.790091 4.446387 -2.036699 -7.207505 24.912254 1.318999 -13.810475 -24.630081 -0.151600 2.508800 -6.914000 0.070894 -2.833619 4.942510 -0.533056 -4.279558 -4.390280 -2.507929 -1.375532 -1.704656 -5.978201 -11.432200 7.597035 -5.134348 -14.116894 10.473419 3.060800 -7.609200 2.329100 0.670991 2.666254 1.092540 -91.233343 3.696861 -24.127703 5.110945 -20.543988 -1.424466 -0.799829 0.328201 38.192405 8.358622 -6.354909 -0.985100 -7.125000 0.000000 0.000000 -12.918200 23.817100 6.768400 1.312094 -0.638712 1.413123 -1.519119 22.591735 -20.916835 -26.046867 41.070973 -7.242450 0.798132 -0.475325 12.637747 14.979146 9.263685 2.399500 7.125000 0.000000 0.000000 28.195000 -20.282800 19.101300 
1.437681 17.881997 19.055859 -0.477155 68.888466 -1.505596 -1.914567 2.512329 1.705271 -6.879783 -5.681618 -6.402420 3.910865 11.573180 36.000225 0.128228 2.362751 -10.683637 0.884300 -5.994400 -16.768100 0.529862 -4.118494 1.045076 24.430117 28.257604 4.696150 -2.054262 -7.223121 24.990604 1.331732 -14.234258 -25.303949 -0.147300 2.473200 -6.815200 0.010069 -2.834432 5.006746 -0.511094 -4.289127 -4.395277 -2.446107 -1.369715 -1.705818 -5.954759 -11.426963 7.490902 -5.186237 -14.118157 10.551367 2.991800 -7.612700 2.367700 0.667054 2.599602 1.098079 -91.305043 3.736831 -23.426845 5.256709 -20.903335 -1.469485 -0.799653 0.337034 37.695395 8.436003 -6.437118 -1.010000 -7.125000 0.000000 0.000000 -12.848300 23.720700 6.759200 1.329979 -0.576654 1.420413 -0.834813 21.748226 -21.182529 -27.776141 42.469635 -8.168200 0.757496 -0.451059 12.912115 14.662347 9.070404 2.298600 7.125000 0.000000 0.000000 28.073100 -20.494300 18.835800 
